<?xml version="1.0" encoding="UTF-8"?>
<svg xmlns="http://www.w3.org/2000/svg" xmlns:xlink="http://www.w3.org/1999/xlink" width="32px" height="32px" viewBox="0 0 32 32" version="1.1">
<g id="surface1">
<path style=" stroke:none;fill-rule:evenodd;fill:rgb(98.431373%,98.431373%,98.431373%);fill-opacity:1;" d="M 15.734375 7.597656 C 14.035156 7.726562 12.648438 8.074219 11.464844 8.675781 C 10.238281 9.296875 9.21875 10.253906 8.714844 11.261719 C 8.535156 11.613281 8.355469 12.175781 8.296875 12.578125 C 8.222656 13.046875 8.246094 13.96875 8.34375 14.421875 C 8.664062 15.929688 9.566406 17.039062 11.078125 17.777344 C 12.035156 18.25 13.011719 18.523438 14.777344 18.8125 C 16.511719 19.101562 17.464844 19.324219 17.957031 19.5625 C 18.398438 19.777344 18.578125 20.058594 18.574219 20.546875 C 18.574219 21.441406 17.703125 21.882812 15.796875 21.957031 C 14.476562 22.007812 13.113281 21.792969 11.757812 21.328125 C 10.722656 20.972656 10.007812 20.628906 9.199219 20.101562 L 8.667969 19.75 L 8.15625 19.75 L 8.15625 24.253906 L 8.367188 24.347656 C 9.164062 24.703125 10.824219 25.171875 12.027344 25.375 C 13.121094 25.558594 14.347656 25.640625 15.6875 25.617188 C 17.226562 25.585938 18.453125 25.414062 19.5625 25.066406 C 21.371094 24.507812 22.808594 23.484375 23.550781 22.230469 C 24.054688 21.382812 24.277344 20.363281 24.191406 19.304688 C 24.09375 18.109375 23.714844 17.246094 22.9375 16.464844 C 22.015625 15.539062 20.691406 14.996094 18.347656 14.574219 C 16.484375 14.242188 16.09375 14.167969 15.609375 14.046875 C 15.316406 13.972656 14.953125 13.867188 14.804688 13.8125 C 14.148438 13.574219 13.875 13.226562 13.875 12.640625 C 13.875 12.113281 14.230469 11.761719 15.03125 11.5 C 15.714844 11.277344 16.644531 11.183594 17.566406 11.246094 C 19.03125 11.34375 20.382812 11.726562 21.785156 12.441406 C 22.054688 12.578125 22.425781 12.789062 22.609375 12.90625 L 22.941406 13.125 L 23.4375 13.125 L 23.4375 8.785156 L 23.289062 8.71875 C 23.011719 8.59375 22.046875 8.285156 21.5 8.144531 C 20.535156 7.898438 19.675781 7.742188 18.71875 7.636719 C 18.179688 7.578125 16.292969 7.554688 15.734375 7.597656 "/>
<path style=" stroke:none;fill-rule:evenodd;fill:rgb(83.137255%,58.039216%,1.568627%);fill-opacity:1;" d="M 15.15625 0.0195312 C 15.078125 0.0234375 14.832031 0.046875 14.609375 0.0625 C 14.0625 0.105469 13.4375 0.199219 12.796875 0.328125 C 8.683594 1.160156 5.039062 3.609375 2.703125 7.109375 C 1.203125 9.363281 0.328125 11.835938 0.0546875 14.609375 C 0.0351562 14.839844 0.015625 15.4375 0.015625 16 C 0.015625 17 0.0429688 17.429688 0.160156 18.234375 C 0.800781 22.753906 3.328125 26.773438 7.109375 29.296875 C 9.363281 30.796875 11.835938 31.671875 14.609375 31.945312 C 14.839844 31.964844 15.4375 31.984375 16 31.984375 C 17 31.984375 17.429688 31.957031 18.234375 31.839844 C 22.753906 31.199219 26.773438 28.671875 29.296875 24.890625 C 30.464844 23.140625 31.261719 21.234375 31.671875 19.203125 C 31.839844 18.378906 31.96875 17.371094 31.96875 16.898438 C 31.96875 16.800781 31.984375 16.714844 32 16.703125 C 32.019531 16.691406 32.03125 16.410156 32.03125 15.964844 C 32.03125 15.492188 32.019531 15.253906 32 15.265625 C 31.980469 15.277344 31.96875 15.214844 31.96875 15.101562 C 31.96875 14.628906 31.839844 13.621094 31.671875 12.796875 C 30.839844 8.683594 28.390625 5.039062 24.890625 2.703125 C 22.652344 1.210938 20.160156 0.328125 17.4375 0.0625 C 17.082031 0.0273438 15.425781 -0.00390625 15.15625 0.0195312 M 15.734375 7.597656 C 14.035156 7.726562 12.648438 8.074219 11.464844 8.675781 C 10.238281 9.296875 9.21875 10.253906 8.714844 11.261719 C 8.535156 11.613281 8.355469 12.175781 8.296875 12.578125 C 8.222656 13.046875 8.246094 13.96875 8.34375 14.421875 C 8.664062 15.929688 9.566406 17.039062 11.078125 17.777344 C 12.035156 18.25 13.011719 18.523438 14.777344 18.8125 C 16.511719 19.101562 17.464844 19.324219 17.957031 19.5625 C 18.398438 19.777344 18.578125 20.058594 18.574219 20.546875 C 18.574219 21.441406 17.703125 21.882812 15.796875 21.957031 C 14.476562 22.007812 13.113281 21.792969 11.757812 21.328125 C 10.722656 20.972656 10.007812 20.628906 9.199219 20.101562 L 8.667969 19.75 L 8.15625 19.75 L 8.15625 24.253906 L 8.367188 24.347656 C 9.164062 24.703125 10.824219 25.171875 12.027344 25.375 C 13.121094 25.558594 14.347656 25.640625 15.6875 25.617188 C 17.226562 25.585938 18.453125 25.414062 19.5625 25.066406 C 21.371094 24.507812 22.808594 23.484375 23.550781 22.230469 C 24.054688 21.382812 24.277344 20.363281 24.191406 19.304688 C 24.09375 18.109375 23.714844 17.246094 22.9375 16.464844 C 22.015625 15.539062 20.691406 14.996094 18.347656 14.574219 C 16.484375 14.242188 16.09375 14.167969 15.609375 14.046875 C 15.316406 13.972656 14.953125 13.867188 14.804688 13.8125 C 14.148438 13.574219 13.875 13.226562 13.875 12.640625 C 13.875 12.113281 14.230469 11.761719 15.03125 11.5 C 15.714844 11.277344 16.644531 11.183594 17.566406 11.246094 C 19.03125 11.34375 20.382812 11.726562 21.785156 12.441406 C 22.054688 12.578125 22.425781 12.789062 22.609375 12.90625 L 22.941406 13.125 L 23.4375 13.125 L 23.4375 8.785156 L 23.289062 8.71875 C 23.011719 8.59375 22.046875 8.285156 21.5 8.144531 C 20.535156 7.898438 19.675781 7.742188 18.71875 7.636719 C 18.179688 7.578125 16.292969 7.554688 15.734375 7.597656 M 0.0117188 16 C 0.0117188 16.402344 0.0195312 16.570312 0.0234375 16.367188 C 0.0273438 16.164062 0.0273438 15.835938 0.0234375 15.632812 C 0.0195312 15.429688 0.0117188 15.597656 0.0117188 16 "/>
</g>
</svg>
