<svg xmlns="http://www.w3.org/2000/svg" width="1024" height="1024" viewBox="0 0 1024 1024" version="1.1"><path d="M 503.500 243.067 C 449.157 247.199, 404.774 258.419, 366.933 277.594 C 327.616 297.517, 295.028 328.121, 278.832 360.334 C 273.154 371.628, 267.422 389.677, 265.442 402.500 C 263.131 417.469, 263.905 446.954, 266.992 461.500 C 277.221 509.712, 306.135 545.208, 354.478 568.901 C 385.184 583.950, 416.423 592.694, 472.875 602.039 C 528.366 611.225, 558.926 618.426, 574.646 626.021 C 588.800 632.859, 594.445 641.853, 594.403 657.500 C 594.326 686.090, 566.474 700.210, 505.500 702.572 C 463.284 704.207, 419.633 697.434, 376.219 682.511 C 343.081 671.121, 320.189 660.124, 294.409 643.212 L 277.317 632 269.159 632 L 261 632 261 704.042 L 261 776.084 267.692 779.086 C 293.205 790.533, 346.437 805.484, 384.834 811.987 C 419.923 817.930, 459.119 820.506, 502 819.688 C 551.293 818.747, 590.440 813.218, 626 802.175 C 683.853 784.209, 729.828 751.509, 753.585 711.430 C 769.692 684.259, 776.862 651.598, 774.143 617.792 C 771.061 579.463, 758.901 551.927, 734.020 526.932 C 704.453 497.231, 662.181 479.826, 587.066 466.425 C 527.533 455.804, 514.992 453.377, 499.500 449.476 C 490.150 447.122, 478.535 443.749, 473.690 441.981 C 452.756 434.344, 444 423.284, 444 404.478 C 444 387.609, 455.417 376.360, 481.035 367.988 C 502.884 360.849, 532.657 357.857, 562.109 359.843 C 609.061 363.009, 652.256 375.259, 697.135 398.137 C 705.734 402.521, 717.572 409.233, 723.441 413.054 L 734.113 420 742.056 420 L 750 420 750 350.547 L 750 281.094 745.250 278.965 C 736.403 275.001, 705.533 265.108, 687.971 260.609 C 657.115 252.704, 629.666 247.708, 599 244.415 C 581.716 242.560, 521.378 241.708, 503.500 243.067" stroke="none" fill="#fbfbfb" fill-rule="evenodd"/><path d="M 485 0.597 C 482.525 0.807, 474.650 1.451, 467.500 2.027 C 449.985 3.437, 430.001 6.360, 409.500 10.511 C 277.893 37.159, 161.269 115.514, 86.533 227.500 C 38.439 299.566, 10.485 378.754, 1.812 467.500 C 1.086 474.922, 0.541 494.016, 0.541 512 C 0.541 544.024, 1.414 557.782, 5.076 583.500 C 25.664 728.089, 106.483 856.705, 227.500 937.467 C 299.566 985.561, 378.754 1013.515, 467.500 1022.188 C 474.922 1022.914, 494.016 1023.459, 512 1023.459 C 544.024 1023.459, 557.782 1022.586, 583.500 1018.924 C 728.089 998.336, 856.705 917.517, 937.467 796.500 C 974.860 740.468, 1000.329 679.495, 1013.489 614.500 C 1018.819 588.173, 1022.988 555.867, 1022.997 540.809 C 1022.998 537.679, 1023.450 534.840, 1024 534.500 C 1024.620 534.117, 1025 525.137, 1025 510.882 C 1025 495.803, 1024.656 488.095, 1024 488.500 C 1023.377 488.885, 1022.999 486.926, 1022.997 483.309 C 1022.988 468.135, 1018.837 435.917, 1013.489 409.500 C 986.841 277.893, 908.486 161.269, 796.500 86.533 C 724.910 38.757, 645.097 10.460, 558 1.975 C 546.580 0.862, 493.619 -0.138, 485 0.597 M 503.500 243.067 C 449.157 247.199, 404.774 258.419, 366.933 277.594 C 327.616 297.517, 295.028 328.121, 278.832 360.334 C 273.154 371.628, 267.422 389.677, 265.442 402.500 C 263.131 417.469, 263.905 446.954, 266.992 461.500 C 277.221 509.712, 306.135 545.208, 354.478 568.901 C 385.184 583.950, 416.423 592.694, 472.875 602.039 C 528.366 611.225, 558.926 618.426, 574.646 626.021 C 588.800 632.859, 594.445 641.853, 594.403 657.500 C 594.326 686.090, 566.474 700.210, 505.500 702.572 C 463.284 704.207, 419.633 697.434, 376.219 682.511 C 343.081 671.121, 320.189 660.124, 294.409 643.212 L 277.317 632 269.159 632 L 261 632 261 704.042 L 261 776.084 267.692 779.086 C 293.205 790.533, 346.437 805.484, 384.834 811.987 C 419.923 817.930, 459.119 820.506, 502 819.688 C 551.293 818.747, 590.440 813.218, 626 802.175 C 683.853 784.209, 729.828 751.509, 753.585 711.430 C 769.692 684.259, 776.862 651.598, 774.143 617.792 C 771.061 579.463, 758.901 551.927, 734.020 526.932 C 704.453 497.231, 662.181 479.826, 587.066 466.425 C 527.533 455.804, 514.992 453.377, 499.500 449.476 C 490.150 447.122, 478.535 443.749, 473.690 441.981 C 452.756 434.344, 444 423.284, 444 404.478 C 444 387.609, 455.417 376.360, 481.035 367.988 C 502.884 360.849, 532.657 357.857, 562.109 359.843 C 609.061 363.009, 652.256 375.259, 697.135 398.137 C 705.734 402.521, 717.572 409.233, 723.441 413.054 L 734.113 420 742.056 420 L 750 420 750 350.547 L 750 281.094 745.250 278.965 C 736.403 275.001, 705.533 265.108, 687.971 260.609 C 657.115 252.704, 629.666 247.708, 599 244.415 C 581.716 242.560, 521.378 241.708, 503.500 243.067 M 0.430 512 C 0.430 524.925, 0.573 530.212, 0.747 523.750 C 0.921 517.288, 0.921 506.712, 0.747 500.250 C 0.573 493.788, 0.430 499.075, 0.430 512" stroke="none" fill="#d49404" fill-rule="evenodd"/></svg>